<?xml version="1.0" encoding="utf-8"?>
<!-- Generator: Adobe Illustrator 16.0.0, SVG Export Plug-In . SVG Version: 6.00 Build 0)  -->
<!DOCTYPE svg PUBLIC "-//W3C//DTD SVG 1.1//EN" "http://www.w3.org/Graphics/SVG/1.1/DTD/svg11.dtd">
<svg version="1.1" id="Layer_1" xmlns="http://www.w3.org/2000/svg" xmlns:xlink="http://www.w3.org/1999/xlink" x="0px" y="0px"
	 width="300px" height="300px" viewBox="0 0 300 300" enable-background="new 0 0 300 300" xml:space="preserve">
<rect x="0" fill="#E74C3C" width="300" height="300"/>
<g>
	<path fill="#E74C3C" stroke="#ECF0F1" stroke-width="17" stroke-miterlimit="10" d="M150.444,117.955
		c-46.356,0-58.303,136.678-58.303,136.678h116.604C208.746,254.633,196.799,117.955,150.444,117.955z"/>
	<circle fill="#E74C3C" stroke="#ECF0F1" stroke-width="17" stroke-miterlimit="10" cx="150.444" cy="96.64" r="30.586"/>
</g>
<g>
	<path fill="#E74C3C" stroke="#ECF0F1" stroke-width="17" stroke-miterlimit="10" d="M216.926,117.955
		c-46.354,0-58.303,136.677-58.303,136.677h116.605C275.229,254.632,263.283,117.955,216.926,117.955z"/>
	<circle fill="#E74C3C" stroke="#ECF0F1" stroke-width="17" stroke-miterlimit="10" cx="216.926" cy="96.64" r="30.586"/>
</g>
<g>
	<path fill="#E74C3C" stroke="#ECF0F1" stroke-width="17" stroke-miterlimit="10" d="M83.518,117.955
		c-46.356,0-58.304,136.679-58.304,136.679h116.606C141.821,254.634,129.874,117.955,83.518,117.955z"/>
	<circle fill="#E74C3C" stroke="#ECF0F1" stroke-width="17" stroke-miterlimit="10" cx="83.519" cy="96.64" r="30.586"/>
</g>
</svg>
