<?xml version="1.0" encoding="utf-8"?>
<!-- Generator: Adobe Illustrator 16.0.0, SVG Export Plug-In . SVG Version: 6.00 Build 0)  -->
<!DOCTYPE svg PUBLIC "-//W3C//DTD SVG 1.1//EN" "http://www.w3.org/Graphics/SVG/1.1/DTD/svg11.dtd">
<svg version="1.1" id="Layer_1" xmlns="http://www.w3.org/2000/svg" xmlns:xlink="http://www.w3.org/1999/xlink" x="0px" y="0px"
	 width="300px" height="300px" viewBox="0 0 300 300" enable-background="new 0 0 300 300" xml:space="preserve">
<rect x="0" fill="#2ECC71" width="300" height="300"/>
<line fill="none" stroke="#ECF0F1" stroke-width="11" stroke-miterlimit="10" x1="267.043" y1="16.184" x2="202.895" y2="206.209"/>
<path fill="#ECF0F1" d="M213.13,193.884c0,0-42.968,9.077-42.968,42.968s3.026,40.547-13.313,50.229
	c-16.34,9.682,67.779-11.498,68.385-33.285C225.839,232.01,199.211,208.408,213.13,193.884z"/>
<path fill="#ECF0F1" d="M132.5,277.5c0,6.627-5.373,12-12,12H41c-6.627,0-12-5.373-12-12V222c0-6.627,5.373-12,12-12h79.5
	c6.627,0,12,5.373,12,12V277.5z"/>
<path fill="#ECF0F1" d="M124,214.191c0-9.006-5.634-16.309-12.584-16.309H90.584c-6.95,0-12.584,7.303-12.584,16.309l0,0
	c0,9.007,5.634,16.309,12.584,16.309h20.832C118.366,230.5,124,223.198,124,214.191L124,214.191z"/>
<rect x="29" y="210" fill="#ECF0F1" width="103.5" height="27"/>
</svg>
