<?xml version="1.0" encoding="utf-8"?>
<!-- Generator: Adobe Illustrator 16.0.0, SVG Export Plug-In . SVG Version: 6.00 Build 0)  -->
<!DOCTYPE svg PUBLIC "-//W3C//DTD SVG 1.1//EN" "http://www.w3.org/Graphics/SVG/1.1/DTD/svg11.dtd">
<svg version="1.1" id="Layer_1" xmlns="http://www.w3.org/2000/svg" xmlns:xlink="http://www.w3.org/1999/xlink" x="0px" y="0px"
	 width="300px" height="300px" viewBox="0 0 300 300" enable-background="new 0 0 300 300" xml:space="preserve">
<rect x="0" fill="#1ABC9C" width="300" height="300"/>
<path fill="#1ABC9C" stroke="#ECF0F1" stroke-width="12" stroke-miterlimit="10" d="M162.228,212.878V63.438
	c0-7.98-6.471-14.45-14.451-14.45h-7.827c-7.981,0-14.451,6.47-14.451,14.45V213.24c-10.116,6.261-16.859,17.452-16.859,30.224
	c0,19.618,15.905,35.523,35.524,35.523c19.618,0,35.524-15.905,35.524-35.523C179.689,230.442,172.677,219.063,162.228,212.878z"/>
<circle fill="#ECF0F1" cx="144" cy="244" r="21.5"/>
<path fill="#ECF0F1" d="M149.372,103.25c0-4.28-2.346-7.75-5.239-7.75l0,0c-2.893,0-5.239,3.47-5.239,7.75v121.5
	c0,4.28,2.346,7.75,5.239,7.75l0,0c2.893,0,5.239-3.47,5.239-7.75V103.25z"/>
<line fill="none" stroke="#ECF0F1" stroke-width="11" stroke-miterlimit="10" x1="166.5" y1="100.5" x2="179.689" y2="100.5"/>
<line fill="none" stroke="#ECF0F1" stroke-width="11" stroke-miterlimit="10" x1="164.5" y1="121.5" x2="189.5" y2="121.5"/>
<line fill="none" stroke="#ECF0F1" stroke-width="11" stroke-miterlimit="10" x1="166.5" y1="143" x2="179.689" y2="143"/>
<line fill="none" stroke="#ECF0F1" stroke-width="11" stroke-miterlimit="10" x1="165.189" y1="78.5" x2="190.189" y2="78.5"/>
<line fill="none" stroke="#ECF0F1" stroke-width="11" stroke-miterlimit="10" x1="165.189" y1="164" x2="190.189" y2="164"/>
</svg>
