<?xml version="1.0" encoding="utf-8"?>
<!-- Generator: Adobe Illustrator 16.0.0, SVG Export Plug-In . SVG Version: 6.00 Build 0)  -->
<!DOCTYPE svg PUBLIC "-//W3C//DTD SVG 1.1//EN" "http://www.w3.org/Graphics/SVG/1.1/DTD/svg11.dtd">
<svg version="1.1" id="Layer_1" xmlns="http://www.w3.org/2000/svg" xmlns:xlink="http://www.w3.org/1999/xlink" x="0px" y="0px"
	 width="300px" height="300px" viewBox="0 0 300 300" enable-background="new 0 0 300 300" xml:space="preserve">
<rect x="0" fill="#8E44AD" width="300" height="300"/>
<path fill="#4D4D4D" stroke="#FFFFFF" stroke-width="17" stroke-miterlimit="10" d="M57.667,94.333"/>
<path fill="#8E44AD" stroke="#EFEFEF" stroke-width="14" stroke-miterlimit="10" d="M151.958,89.889
	c-48.067,0-62.995,161.443-62.995,161.443h123.452C212.415,251.332,200.026,89.889,151.958,89.889z"/>
<circle fill="#8E44AD" stroke="#EFEFEF" stroke-width="14" stroke-miterlimit="10" cx="152.304" cy="56.271" r="39.198"/>
<g>
	<path fill="#EFEFEF" d="M127.832,57.218c0,0,1.535,0.321,3.837,0.803c0.542,0.107,1.11,0.234,1.71,0.33
		c0.586,0.137,1.214,0.191,1.831,0.314c0.627,0.069,1.26,0.167,1.894,0.224c0.637,0.025,1.271,0.134,1.904,0.095
		c0.315,0.002,0.634,0.046,0.947,0.027c0.311-0.037,0.625-0.037,0.937-0.05c0.631,0.019,1.229-0.133,1.844-0.166
		c0.153-0.014,0.308-0.02,0.458-0.039c0.146-0.037,0.292-0.068,0.44-0.094c0.296-0.053,0.584-0.116,0.878-0.157
		c0.598-0.055,1.128-0.25,1.66-0.366c0.521-0.139,1.062-0.187,1.486-0.351c0.438-0.139,0.851-0.236,1.192-0.326
		c0.686-0.175,1.133-0.244,1.133-0.244s-0.153,0.393-0.519,1.025c-0.185,0.314-0.41,0.708-0.704,1.131
		c-0.271,0.453-0.703,0.819-1.147,1.278c-0.463,0.431-0.955,0.942-1.598,1.303c-0.311,0.202-0.642,0.388-0.98,0.59
		c-0.333,0.217-0.698,0.38-1.085,0.515c-0.381,0.152-0.78,0.281-1.184,0.417c-0.4,0.158-0.823,0.235-1.254,0.295
		c-0.429,0.066-0.863,0.146-1.302,0.19c-0.438,0.04-0.879,0.016-1.32,0.02c-0.888,0.004-1.75-0.145-2.591-0.317
		c-0.427-0.058-0.821-0.218-1.218-0.344c-0.392-0.137-0.79-0.244-1.149-0.423c-0.725-0.341-1.418-0.675-2.012-1.092
		c-0.611-0.386-1.139-0.822-1.605-1.238c-0.927-0.845-1.563-1.68-1.945-2.314C127.973,57.633,127.832,57.218,127.832,57.218z"/>
</g>
<path fill="#EFEFEF" d="M85.954,218.911c0,0-40.115-10.766-43.2,17.179c-3.086,27.944,60.943,33.025,83.315,33.66
	c22.371,0.635,51.211-14.607,40.263-22.863C155.385,238.63,99.84,217.609,85.954,218.911z"/>
<path fill="#EFEFEF" d="M218.175,219.955c0,0,42.069-10.766,45.304,17.179c3.236,27.944-63.91,33.025-87.372,33.66
	c-23.46,0.636-53.704-14.607-42.223-22.863S203.613,218.654,218.175,219.955z"/>
<path fill="#EFEFEF" d="M119.448,105.82c0,0-76.212,73.746-45.092,92.799c31.12,19.053,87.009,10.796,76.848-5.717
	c-10.162-16.512-88.915,16.693-29.85-78.117"/>
<path fill="#EFEFEF" d="M184.227,105.82c0,0,76.212,73.746,45.093,92.799c-31.12,19.053-87.009,10.796-76.848-5.717
	c10.162-16.512,88.914,13.973,28.58-80.022"/>
<g>
	<path fill="#EFEFEF" d="M152.421,57.217c0,0,1.535,0.321,3.837,0.803c0.543,0.107,1.11,0.234,1.71,0.33
		c0.587,0.137,1.214,0.191,1.831,0.314c0.627,0.07,1.26,0.168,1.894,0.224c0.638,0.025,1.271,0.134,1.904,0.095
		c0.315,0.002,0.634,0.046,0.947,0.027c0.312-0.037,0.624-0.037,0.937-0.05c0.631,0.019,1.229-0.133,1.844-0.166
		c0.153-0.014,0.308-0.02,0.458-0.039c0.146-0.037,0.292-0.068,0.44-0.094c0.296-0.053,0.585-0.117,0.879-0.158
		c0.598-0.054,1.128-0.25,1.659-0.366c0.521-0.138,1.062-0.187,1.486-0.351c0.438-0.139,0.852-0.236,1.191-0.326
		c0.687-0.175,1.134-0.244,1.134-0.244s-0.153,0.393-0.519,1.025c-0.185,0.314-0.41,0.708-0.704,1.131
		c-0.271,0.453-0.702,0.819-1.146,1.278c-0.463,0.431-0.955,0.942-1.599,1.304c-0.31,0.202-0.642,0.388-0.98,0.59
		c-0.333,0.217-0.697,0.38-1.085,0.515c-0.382,0.152-0.78,0.281-1.184,0.417c-0.4,0.158-0.823,0.235-1.254,0.294
		c-0.43,0.066-0.863,0.146-1.303,0.19c-0.438,0.04-0.879,0.016-1.32,0.02c-0.888,0.005-1.75-0.144-2.592-0.316
		c-0.427-0.059-0.82-0.218-1.217-0.344c-0.393-0.138-0.79-0.244-1.149-0.423c-0.726-0.341-1.418-0.675-2.013-1.093
		c-0.611-0.385-1.139-0.822-1.604-1.238c-0.927-0.845-1.563-1.68-1.945-2.314C152.561,57.632,152.421,57.217,152.421,57.217z"/>
</g>
</svg>
