<?xml version="1.0" encoding="utf-8"?>
<!-- Generator: Adobe Illustrator 16.0.0, SVG Export Plug-In . SVG Version: 6.00 Build 0)  -->
<!DOCTYPE svg PUBLIC "-//W3C//DTD SVG 1.1//EN" "http://www.w3.org/Graphics/SVG/1.1/DTD/svg11.dtd">
<svg version="1.1" id="Layer_1" xmlns="http://www.w3.org/2000/svg" xmlns:xlink="http://www.w3.org/1999/xlink" x="0px" y="0px"
	 width="300px" height="300px" viewBox="0 0 300 300" enable-background="new 0 0 300 300" xml:space="preserve">
<rect x="0" y="1" fill="#2980B9" width="300" height="300"/>
<circle fill="none" stroke="#EFEFEF" stroke-width="12" stroke-miterlimit="10" cx="114.095" cy="97.133" r="21.222"/>
<circle fill="none" stroke="#EFEFEF" stroke-width="12" stroke-miterlimit="10" cx="113.91" cy="97.044" r="41.389"/>
<circle fill="none" stroke="#FFFFFF" stroke-width="12" stroke-miterlimit="10" cx="114.095" cy="97.132" r="62.465"/>
<rect x="44.156" y="92.615" transform="matrix(-0.9439 0.3301 -0.3301 -0.9439 301.7862 210.2011)" fill="#2980B9" width="177.779" height="76.22"/>
<rect x="105.227" y="16.376" transform="matrix(-0.9439 0.3302 -0.3302 -0.9439 301.257 89.2247)" fill="#2980B9" width="75.647" height="107.646"/>
<g>
	<path fill="#2980B9" stroke="#EFEFEF" stroke-width="17" stroke-miterlimit="10" d="M159.51,118.707
		c-55.686,0-70.037,164.184-70.037,164.184h140.074C229.547,282.891,215.195,118.707,159.51,118.707z"/>
	<circle fill="#2980B9" stroke="#EFEFEF" stroke-width="17" stroke-miterlimit="10" cx="159.51" cy="93.102" r="36.742"/>
</g>
<path fill="#4D4D4D" stroke="#FFFFFF" stroke-width="17" stroke-miterlimit="10" d="M57.667,94.333"/>
<circle fill="#ECF0F1" cx="239.735" cy="146.261" r="16.417"/>
<circle fill="#ECF0F1" cx="78.41" cy="152.9" r="14.458"/>
<ellipse fill="#ECF0F1" cx="148.5" cy="107" rx="8.5" ry="5"/>
</svg>
