<?xml version="1.0" encoding="utf-8"?>
<!-- Generator: Adobe Illustrator 16.0.0, SVG Export Plug-In . SVG Version: 6.00 Build 0)  -->
<!DOCTYPE svg PUBLIC "-//W3C//DTD SVG 1.1//EN" "http://www.w3.org/Graphics/SVG/1.1/DTD/svg11.dtd">
<svg version="1.1" id="Layer_1" xmlns="http://www.w3.org/2000/svg" xmlns:xlink="http://www.w3.org/1999/xlink" x="0px" y="0px"
	 width="300px" height="300px" viewBox="0 0 300 300" enable-background="new 0 0 300 300" xml:space="preserve">
<line fill="none" stroke="#ECF0F1" stroke-width="12" stroke-miterlimit="10" x1="111.762" y1="158.91" x2="74.429" y2="236.244"/>
<line fill="none" stroke="#ECF0F1" stroke-width="12" stroke-miterlimit="10" x1="166.263" y1="159.001" x2="204.263" y2="236.335"/>
<line fill="none" stroke="#ECF0F1" stroke-width="12" stroke-miterlimit="10" x1="213.929" y1="134.969" x2="271.263" y2="67.636"/>
<circle fill="#9B59B6" stroke="#ECF0F1" stroke-width="12" stroke-miterlimit="10" cx="74.429" cy="236.244" r="25"/>
<circle fill="#9B59B6" stroke="#ECF0F1" stroke-width="12" stroke-miterlimit="10" cx="204.263" cy="236.486" r="25"/>
<path fill="#9B59B6" stroke="#ECF0F1" stroke-width="12" stroke-miterlimit="10" d="M112.762,120.41l2-71.333c0,0-74-12.667-74,70
	c0,105.333,186,108.667,186,1.333H112.762z"/>
<path fill="#ECF0F1" d="M12.001,0"/>
<g>
	<path fill-rule="evenodd" clip-rule="evenodd" fill="#3497DA" d="M-0.005,7.607c0-2.329,0.021-4.657-0.017-6.985
		c-0.009-0.527,0.101-0.722,0.63-0.618c0.157,0.031,0.326,0.005,0.489,0.005c99.265,0,198.528,0.001,297.794-0.023
		c0.918,0,1.156,0.203,1.129,1.126c-0.076,2.408-0.025,4.82-0.025,7.23c-0.707,0.205-1.088,0.821-1.574,1.287
		c-39.234,37.635-78.461,75.278-117.695,112.913c-0.275,0.263-0.469,0.676-1.047,0.7c0-3.444,0.014-6.862-0.004-10.28
		c-0.012-1.96,0.26-1.673-1.691-1.674c-19.115-0.008-38.232-0.009-57.348,0.009c-0.851,0.001-1.247-0.106-1.358-1.134
		c-0.481-4.454-1.093-8.893-1.669-13.336c-1.112-8.563-2.228-17.125-3.361-25.686c-0.104-0.794,0.091-1.085,0.941-1.041
		c1.834,0.096,3.672,0.083,5.484-0.298c12.238-2.565,20.379-15.346,17.43-27.512c-3.924-16.184-22.619-22.899-35.973-13.095
		c-6.375,4.682-9.51,11.111-8.768,19.175c0.127,1.378,0.325,2.75,0.492,4.125c0.604,4.974,1.203,9.949,1.813,14.922
		c0.619,5.054,1.248,10.107,1.876,15.16c0.618,4.972,1.243,9.943,1.856,14.916c0.236,1.923,0.447,3.848,0.68,5.852
		c-0.635-0.146-0.872-0.555-1.18-0.852C66.337,71.178,33.78,39.858,1.214,8.547C0.848,8.196,0.587,7.676-0.005,7.607z"/>
	<path fill-rule="evenodd" clip-rule="evenodd" fill="#3497DA" d="M299.995,15.94c0,93.301,0,186.601,0,279.902
		c-0.25-0.205-0.514-0.395-0.746-0.617c-20.699-19.904-41.393-39.815-62.105-59.703c-0.766-0.734-0.85-0.979,0.205-1.501
		c9.197-4.55,18.357-9.173,27.549-13.737c0.842-0.419,0.951-0.769,0.521-1.598c-2.35-4.52-4.641-9.069-6.949-13.609
		c-0.771-1.518-0.77-1.519-2.242-0.781c-8.533,4.271-17.076,8.527-25.59,12.837c-0.957,0.485-1.293,0.337-1.768-0.612
		c-10.57-21.171-21.199-42.313-31.766-63.485c-1.783-3.575-4.561-5.25-8.502-5.239c-8.211,0.023-16.42,0.009-24.631,0
		c-0.41,0-0.857,0.118-1.412-0.254c0.318-0.244,0.563-0.398,0.768-0.595c42.182-40.468,84.359-80.939,126.543-121.406
		C293.225,22.321,296.618,19.139,299.995,15.94z"/>
	<path fill-rule="evenodd" clip-rule="evenodd" fill="#3498DA" d="M296.073,300.009c-97.387,0-194.771,0-292.157,0
		c0.156-0.186,0.296-0.387,0.47-0.554c17.036-16.347,34.082-32.684,51.09-49.059c0.787-0.758,1.075-0.369,1.59,0.16
		c7.369,7.576,15.889,13.527,25.522,17.856c13.156,5.911,26.938,7.971,41.278,6.649c7.183-0.663,14.195-2.102,20.865-4.805
		c23.881-9.679,40.523-26.394,49.043-50.908c0.244-0.703,0.227-1.262-0.115-1.941c-4.445-8.84-8.855-17.698-13.289-26.545
		c-0.158-0.317-0.217-0.755-0.711-0.928c0.416,4.359,0.125,8.625-0.488,12.876c-1.855,12.899-7.305,24.144-16.098,33.667
		c-10.832,11.731-24.214,18.663-40.182,20.428c-7.245,0.801-14.414,0.392-21.519-1.175c-12.11-2.67-22.268-8.792-30.963-17.52
		c-0.829-0.832-0.958-1.237-0.022-2.134c24.17-23.131,48.306-46.296,72.434-69.471c0.52-0.499,1.039-0.673,1.734-0.668
		c3.676,0.025,7.354,0.041,11.029-0.009c0.893-0.012,1.514,0.263,2.148,0.875c16.354,15.761,32.723,31.504,49.1,47.24
		c0.629,0.605,1.105,1.285,1.494,2.063c2.91,5.837,5.986,11.597,8.713,17.519c2.59,5.624,8.861,6.477,12.758,4.16
		c0.828-0.493,1.348-0.388,2.066,0.307c18.521,17.866,37.076,35.698,55.619,53.543C290.364,294.409,293.21,297.217,296.073,300.009z
		"/>
	<path fill-rule="evenodd" clip-rule="evenodd" fill="#ECF0F1" d="M296.073,300.009c-2.863-2.792-5.709-5.6-8.59-8.372
		c-18.543-17.845-37.098-35.677-55.619-53.543c-0.719-0.694-1.238-0.8-2.066-0.307c-3.896,2.316-10.168,1.464-12.758-4.16
		c-2.727-5.922-5.803-11.682-8.713-17.519c-0.389-0.777-0.865-1.457-1.494-2.063c-16.377-15.736-32.746-31.479-49.1-47.24
		c-0.635-0.612-1.256-0.887-2.148-0.875c-3.676,0.05-7.354,0.034-11.029,0.009c-0.695-0.005-1.215,0.169-1.734,0.668
		c-24.128,23.175-48.264,46.34-72.434,69.471c-0.936,0.896-0.807,1.302,0.022,2.134c8.695,8.728,18.853,14.85,30.963,17.52
		c7.104,1.566,14.273,1.976,21.519,1.175c15.968-1.765,29.35-8.696,40.182-20.428c8.793-9.523,14.242-20.768,16.098-33.667
		c0.613-4.251,0.904-8.517,0.488-12.876c0.494,0.173,0.553,0.61,0.711,0.928c4.434,8.847,8.844,17.705,13.289,26.545
		c0.342,0.68,0.359,1.238,0.115,1.941c-8.52,24.515-25.162,41.229-49.043,50.908c-6.67,2.703-13.683,4.142-20.865,4.805
		c-14.34,1.321-28.122-0.738-41.278-6.649c-9.634-4.329-18.153-10.28-25.522-17.856c-0.515-0.529-0.803-0.918-1.59-0.16
		c-17.008,16.375-34.054,32.712-51.09,49.059c-0.174,0.167-0.313,0.368-0.47,0.554c-1.144,0-2.288-0.026-3.431,0.014
		c-0.428,0.015-0.518-0.077-0.504-0.505c0.038-1.224,0.014-2.45,0.014-3.676c0.191-0.146,0.398-0.276,0.571-0.441
		c17.068-16.371,34.128-32.75,51.22-49.097c0.766-0.732,0.521-1.107,0.002-1.769c-10.002-12.706-16.039-27.015-17.54-43.19
		c-0.87-9.389-0.45-18.703,2.044-27.786c7.465-27.19,24.16-46.291,50.438-56.849c0.98-0.394,1.154-0.024,1.258,0.824
		c0.654,5.337,1.281,10.678,2.058,15.997c0.165,1.134-0.108,1.543-1.073,1.989c-9.836,4.539-17.968,11.184-24.393,19.909
		c-6.195,8.416-10.244,17.749-11.836,28.094c-1.162,7.564-0.99,15.127,0.457,22.645c1.85,9.62,5.863,18.258,11.884,25.98
		c0.532,0.682,0.825,0.588,1.386,0.05c22.682-21.789,45.378-43.563,68.064-65.346c0.235-0.226,0.652-0.375,0.555-0.9
		c-0.455,0-0.899,0-1.344,0c-6.005-0.001-12.01,0.016-18.014-0.009c-4.457-0.019-8.377-3.64-8.895-8.051
		c-0.796-6.798-1.652-13.588-2.487-20.381c-0.886-7.196-1.731-14.398-2.702-21.583c-0.196-1.459,0.064-3.038-1.262-4.313
		C69.037,81.513,37.722,51.375,6.397,21.25c-2.115-2.034-4.268-4.031-6.402-6.044c0-2.533,0-5.065,0-7.598
		c0.592,0.069,0.854,0.589,1.219,0.94c32.566,31.311,65.123,62.631,97.686,93.945c0.308,0.296,0.545,0.706,1.18,0.852
		c-0.232-2.003-0.443-3.929-0.68-5.852c-0.613-4.972-1.238-9.943-1.856-14.916c-0.628-5.053-1.257-10.106-1.876-15.16
		c-0.609-4.973-1.209-9.948-1.813-14.922c-0.167-1.375-0.365-2.747-0.492-4.125c-0.742-8.063,2.393-14.493,8.768-19.175
		c13.354-9.804,32.049-3.089,35.973,13.095c2.949,12.166-5.191,24.947-17.43,27.512c-1.813,0.38-3.65,0.394-5.484,0.298
		c-0.851-0.044-1.046,0.246-0.941,1.041c1.134,8.561,2.249,17.123,3.361,25.686c0.576,4.443,1.188,8.882,1.669,13.336
		c0.111,1.028,0.508,1.135,1.358,1.134c19.115-0.018,38.232-0.017,57.348-0.009c1.951,0.001,1.68-0.286,1.691,1.674
		c0.018,3.418,0.004,6.836,0.004,10.28c0.578-0.024,0.771-0.437,1.047-0.7C219.96,84.907,259.186,47.264,298.421,9.629
		c0.486-0.466,0.867-1.083,1.574-1.287c0,2.532,0,5.065,0,7.598c-3.377,3.199-6.77,6.381-10.125,9.6
		c-42.184,40.467-84.361,80.938-126.543,121.406c-0.205,0.197-0.449,0.352-0.768,0.595c0.555,0.372,1.002,0.253,1.412,0.254
		c8.211,0.008,16.42,0.023,24.631,0c3.941-0.011,6.719,1.664,8.502,5.239c10.566,21.172,21.195,42.314,31.766,63.485
		c0.475,0.949,0.811,1.098,1.768,0.612c8.514-4.31,17.057-8.565,25.59-12.837c1.473-0.737,1.471-0.736,2.242,0.781
		c2.309,4.54,4.6,9.09,6.949,13.609c0.43,0.829,0.32,1.179-0.521,1.598c-9.191,4.564-18.352,9.188-27.549,13.737
		c-1.055,0.521-0.971,0.767-0.205,1.501c20.713,19.888,41.406,39.799,62.105,59.703c0.232,0.223,0.496,0.412,0.746,0.617
		c0,1.226-0.025,2.452,0.014,3.676c0.012,0.428-0.078,0.52-0.506,0.505C298.362,299.982,297.218,300.009,296.073,300.009z
		 M199.77,199.257c-0.063,0.146-0.049,0.224,0.133,0.148c-0.053-0.042-0.107-0.085-0.16-0.127c-0.084-0.267-0.135-0.55-0.258-0.797
		c-5.283-10.556-10.582-21.104-15.844-31.671c-0.355-0.715-0.783-0.876-1.512-0.873c-5.389,0.025-10.779,0.012-16.168,0.021
		c-0.258,0-0.568-0.135-0.82,0.202c0.158,0.177,0.305,0.362,0.473,0.524c11.123,10.701,22.244,21.402,33.375,32.096
		C199.204,198.989,199.36,199.349,199.77,199.257z M127.055,129.493c0.254,0.303,0.346,0.437,0.461,0.547
		c5.973,5.748,11.953,11.489,17.915,17.25c0.427,0.413,0.864,0.524,1.421,0.52c2.124-0.02,4.248-0.044,6.371,0.01
		c0.842,0.021,1.443-0.234,2.049-0.82c5.754-5.563,11.539-11.096,17.307-16.646c0.242-0.233,0.645-0.383,0.607-0.861
		C157.874,129.493,142.575,129.493,127.055,129.493z M137.956,147.801c-5.398-5.191-10.531-10.127-15.861-15.251
		c0.262,2.151,0.482,3.965,0.705,5.779c0.347,2.826,0.686,5.652,1.054,8.476c0.063,0.489,0.062,1.022,0.881,1.015
		C129.009,147.78,133.284,147.801,137.956,147.801z"/>
	<path fill-rule="evenodd" clip-rule="evenodd" fill="#3498DA" d="M-0.005,15.205c2.135,2.014,4.287,4.01,6.402,6.044
		c31.325,30.126,62.64,60.263,93.988,90.365c1.326,1.274,1.065,2.854,1.262,4.313c0.971,7.185,1.816,14.387,2.702,21.583
		c0.835,6.793,1.691,13.583,2.487,20.381c0.518,4.411,4.438,8.032,8.895,8.051c6.004,0.024,12.009,0.008,18.014,0.009
		c0.444,0,0.889,0,1.344,0c0.098,0.525-0.319,0.675-0.555,0.9c-22.687,21.783-45.383,43.557-68.064,65.346
		c-0.561,0.538-0.854,0.632-1.386-0.05c-6.021-7.723-10.034-16.36-11.884-25.98c-1.447-7.518-1.619-15.08-0.457-22.645
		c1.592-10.345,5.641-19.678,11.836-28.094c6.425-8.725,14.557-15.37,24.393-19.909c0.965-0.446,1.238-0.854,1.073-1.989
		c-0.776-5.319-1.403-10.66-2.058-15.997c-0.104-0.849-0.277-1.218-1.258-0.824c-26.277,10.558-42.973,29.659-50.438,56.849
		c-2.494,9.083-2.914,18.397-2.044,27.786c1.501,16.176,7.538,30.484,17.54,43.19c0.52,0.661,0.764,1.036-0.002,1.769
		C34.694,262.65,17.635,279.029,0.566,295.4c-0.173,0.165-0.38,0.295-0.571,0.441C-0.005,202.296-0.005,108.75-0.005,15.205z"/>
	<path fill-rule="evenodd" clip-rule="evenodd" fill="#3498DA" d="M127.055,129.493c15.52,0,30.818,0,46.131,0
		c0.037,0.478-0.365,0.628-0.607,0.861c-5.768,5.55-11.553,11.083-17.307,16.646c-0.605,0.585-1.207,0.841-2.049,0.82
		c-2.123-0.054-4.247-0.03-6.371-0.01c-0.557,0.005-0.994-0.107-1.421-0.52c-5.962-5.761-11.942-11.502-17.915-17.25
		C127.401,129.93,127.309,129.796,127.055,129.493z"/>
	<path fill-rule="evenodd" clip-rule="evenodd" fill="#3498DA" d="M199.77,199.257c-0.41,0.092-0.566-0.268-0.781-0.476
		c-11.131-10.693-22.252-21.395-33.375-32.096c-0.168-0.162-0.314-0.348-0.473-0.524c0.252-0.337,0.563-0.202,0.82-0.202
		c5.389-0.01,10.779,0.004,16.168-0.021c0.729-0.003,1.156,0.158,1.512,0.873c5.262,10.567,10.561,21.115,15.844,31.671
		c0.123,0.247,0.174,0.53,0.258,0.797L199.77,199.257z"/>
	<path fill-rule="evenodd" clip-rule="evenodd" fill="#3498DA" d="M137.956,147.801c-4.672,0-8.947-0.021-13.222,0.018
		c-0.819,0.007-0.817-0.526-0.881-1.015c-0.368-2.823-0.707-5.65-1.054-8.476c-0.223-1.814-0.443-3.628-0.705-5.779
		C127.425,137.674,132.557,142.609,137.956,147.801z"/>
	<path fill-rule="evenodd" clip-rule="evenodd" fill="#3498DA" d="M199.743,199.278c0.053,0.042,0.107,0.085,0.16,0.127
		c-0.182,0.075-0.195-0.002-0.133-0.148L199.743,199.278z"/>
</g>
<g>
	<g>
		<defs>
			<rect id="SVGID_1_" x="0" width="300" height="300"/>
		</defs>
		<clipPath id="SVGID_2_">
			<use xlink:href="#SVGID_1_"  overflow="visible"/>
		</clipPath>
		<g clip-path="url(#SVGID_2_)">
			
				<rect x="-84.499" y="130.265" transform="matrix(-0.7071 0.7071 -0.7071 -0.7071 375.4956 122.4034)" fill="#ECF0F1" width="493.793" height="17.41"/>
			
				<rect x="-103.068" y="135.432" transform="matrix(-0.7071 -0.7071 0.7071 -0.7071 143.6105 347.7599)" fill="#ECF0F1" width="493.793" height="17.41"/>
		</g>
	</g>
</g>
</svg>
