<?xml version="1.0" encoding="utf-8"?>
<!-- Generator: Adobe Illustrator 16.0.0, SVG Export Plug-In . SVG Version: 6.00 Build 0)  -->
<!DOCTYPE svg PUBLIC "-//W3C//DTD SVG 1.1//EN" "http://www.w3.org/Graphics/SVG/1.1/DTD/svg11.dtd">
<svg version="1.1" id="Layer_1" xmlns="http://www.w3.org/2000/svg" xmlns:xlink="http://www.w3.org/1999/xlink" x="0px" y="0px"
	 width="300px" height="300px" viewBox="0 0 300 300" enable-background="new 0 0 300 300" xml:space="preserve">
<rect x="0" fill="#27AE60" width="300" height="300"/>
<g>
	<path fill="#27AE60" stroke="#ECF0F1" stroke-width="17" stroke-miterlimit="10" d="M150.444,120.955
		c-46.356,0-58.303,136.678-58.303,136.678h116.604C208.746,257.633,196.799,120.955,150.444,120.955z"/>
	<circle fill="#27AE60" stroke="#ECF0F1" stroke-width="17" stroke-miterlimit="10" cx="150.444" cy="99.64" r="30.586"/>
</g>
<g>
	<g>
		<path fill="none" stroke="#ECF0F1" stroke-width="9" stroke-miterlimit="10" d="M175.183,251.426
			c-0.752,6.217-1.077,9.939-1.077,9.939h10"/>
		
			<line fill="none" stroke="#ECF0F1" stroke-width="9" stroke-miterlimit="10" stroke-dasharray="19.3211,9.6605" x1="193.766" y1="261.365" x2="275.882" y2="261.365"/>
		<path fill="none" stroke="#ECF0F1" stroke-width="9" stroke-miterlimit="10" d="M280.712,261.365h10c0,0-0.325-3.723-1.077-9.939"
			/>
		<path fill="none" stroke="#ECF0F1" stroke-width="9" stroke-miterlimit="10" stroke-dasharray="21.0351,10.5175" d="M288.262,241
			c-5.408-38.093-20.784-116.312-55.854-116.312c-36.754,0-51.878,85.927-56.565,121.518"/>
	</g>
</g>
<g>
	<circle fill="#27AE60" cx="232.409" cy="103.374" r="30.586"/>
	
		<circle fill="none" stroke="#ECF0F1" stroke-width="9" stroke-miterlimit="10" stroke-dasharray="21.3476,10.6738" cx="232.409" cy="103.374" r="30.586"/>
</g>
<g>
	<g>
		<path fill="none" stroke="#ECF0F1" stroke-width="9" stroke-miterlimit="10" d="M11.32,251.428
			c-0.751,6.217-1.077,9.939-1.077,9.939h10"/>
		
			<line fill="none" stroke="#ECF0F1" stroke-width="9" stroke-miterlimit="10" stroke-dasharray="19.3213,9.6606" x1="29.903" y1="261.367" x2="112.019" y2="261.367"/>
		<path fill="none" stroke="#ECF0F1" stroke-width="9" stroke-miterlimit="10" d="M116.849,261.367h10c0,0-0.325-3.723-1.077-9.939"
			/>
		<path fill="none" stroke="#ECF0F1" stroke-width="9" stroke-miterlimit="10" stroke-dasharray="21.0354,10.5177" d="
			M124.4,241.001c-5.409-38.093-20.785-116.313-55.853-116.313c-36.756,0-51.88,85.928-56.568,121.52"/>
	</g>
</g>
<g>
	<circle fill="#27AE60" cx="68.548" cy="103.374" r="30.586"/>
	
		<circle fill="none" stroke="#ECF0F1" stroke-width="9" stroke-miterlimit="10" stroke-dasharray="21.3474,10.6737" cx="68.548" cy="103.374" r="30.586"/>
</g>
</svg>
