<?xml version="1.0" encoding="utf-8"?>
<!-- Generator: Adobe Illustrator 16.0.0, SVG Export Plug-In . SVG Version: 6.00 Build 0)  -->
<!DOCTYPE svg PUBLIC "-//W3C//DTD SVG 1.1//EN" "http://www.w3.org/Graphics/SVG/1.1/DTD/svg11.dtd">
<svg version="1.1" id="Layer_1" xmlns="http://www.w3.org/2000/svg" xmlns:xlink="http://www.w3.org/1999/xlink" x="0px" y="0px"
	 width="300px" height="300px" viewBox="0 0 300 300" enable-background="new 0 0 300 300" xml:space="preserve">
<rect x="0" fill="#16A085" width="300" height="301"/>
<circle fill="#16A085" stroke="#EFEFEF" stroke-width="17" stroke-miterlimit="10" cx="150" cy="84.102" r="52.742"/>
<path fill="#4D4D4D" stroke="#FFFFFF" stroke-width="17" stroke-miterlimit="10" d="M57.667,94.333"/>
<circle fill="#ECF0F1" cx="208.361" cy="177.152" r="20.646"/>
<circle fill="#ECF0F1" cx="96.829" cy="177.153" r="18.182"/>
<path fill="none" stroke="#EFEFEF" stroke-width="16" stroke-miterlimit="10" d="M150.019,157.33
	c36.17,0,65.489,29.319,65.489,65.491c0,36.169-29.319,65.488-65.489,65.488c-36.17,0-65.49-29.319-65.49-65.488
	C84.529,186.649,113.849,157.33,150.019,157.33z"/>
<line fill="none" stroke="#EFEFEF" stroke-width="11" stroke-miterlimit="10" x1="84.529" y1="222.821" x2="215.509" y2="222.821"/>
<line fill="none" stroke="#EFEFEF" stroke-width="9" stroke-miterlimit="10" x1="94.198" y1="257.073" x2="205.631" y2="257.073"/>
<rect x="132.399" y="222.821" fill="#EFEFEF" width="33.956" height="34.252"/>
<polygon fill="#16A085" stroke="#EFEFEF" stroke-width="17" stroke-miterlimit="10" points="92.5,17.5 113.125,56.5 188.484,56.5 
	209.585,17.5 "/>
<line fill="none" stroke="#EFEFEF" stroke-width="17" stroke-miterlimit="10" x1="86" y1="56" x2="216" y2="56"/>
<g>
	<path fill="#EFEFEF" d="M129.5,107.572c0,0,0.726,0.252,1.997,0.694c1.238,0.425,2.935,1.033,4.884,1.646
		c1.944,0.626,4.135,1.249,6.379,1.726c1.129,0.212,2.262,0.439,3.405,0.547c1.138,0.153,2.279,0.205,3.413,0.225
		c0.566-0.008,1.134,0.012,1.697-0.036l0.847-0.039l0.843-0.089c0.565-0.027,1.118-0.149,1.682-0.205
		c0.564-0.056,1.103-0.234,1.666-0.301c1.099-0.243,2.195-0.496,3.246-0.813c0.544-0.115,1.042-0.317,1.554-0.472
		c0.512-0.155,1.018-0.296,1.489-0.481c0.958-0.338,1.885-0.629,2.69-0.951c0.82-0.298,1.575-0.542,2.18-0.783
		c0.607-0.234,1.134-0.383,1.477-0.504c0.351-0.114,0.552-0.164,0.552-0.164s-0.057,0.192-0.189,0.534
		c-0.141,0.333-0.323,0.853-0.618,1.468c-0.271,0.638-0.689,1.338-1.198,2.141c-0.492,0.82-1.159,1.651-1.928,2.55
		c-0.783,0.878-1.709,1.784-2.799,2.631c-1.084,0.855-2.334,1.654-3.721,2.343c-1.396,0.671-2.921,1.258-4.546,1.622
		c-0.812,0.189-1.638,0.347-2.482,0.417c-0.84,0.123-1.691,0.114-2.541,0.13c-1.696-0.032-3.389-0.236-4.981-0.649
		c-1.603-0.387-3.1-0.979-4.472-1.648c-1.373-0.674-2.601-1.473-3.692-2.296c-1.08-0.843-2.029-1.705-2.821-2.577
		c-1.602-1.725-2.617-3.412-3.222-4.64C129.692,108.356,129.5,107.572,129.5,107.572z"/>
</g>
</svg>
