<?xml version="1.0" encoding="utf-8"?>
<!-- Generator: Adobe Illustrator 16.0.0, SVG Export Plug-In . SVG Version: 6.00 Build 0)  -->
<!DOCTYPE svg PUBLIC "-//W3C//DTD SVG 1.1//EN" "http://www.w3.org/Graphics/SVG/1.1/DTD/svg11.dtd">
<svg version="1.1" id="Layer_1" xmlns="http://www.w3.org/2000/svg" xmlns:xlink="http://www.w3.org/1999/xlink" x="0px" y="0px"
	 width="300px" height="300px" viewBox="0 0 300 300" enable-background="new 0 0 300 300" xml:space="preserve">
<rect x="0" y="0.167" fill="#E67E22" width="300" height="300"/>
<path fill="#ECF0F1" d="M10.74,8.917"/>
<line fill="none" stroke="#ECF0F1" stroke-width="9" stroke-miterlimit="10" x1="194.302" y1="0.167" x2="194.302" y2="300.166"/>
<path fill="#ECF0F1" d="M217.802,215.666c0,6.627-5.373,12-12,12h-58c-6.627,0-12-5.373-12-12v-101c0-6.627,5.373-12,12-12h58
	c6.627,0,12,5.373,12,12V215.666z"/>
<rect x="146.802" y="154.082" fill="#E67E22" width="52" height="59.584"/>
<circle fill="#ECF0F1" cx="172.802" cy="185.166" r="10.5"/>
<path fill="#ECF0F1" d="M157.052,165.166c0,2.072-1.679,3.75-3.75,3.75h-13c-2.071,0-3.75-1.678-3.75-3.75l0,0
	c0-2.07,1.679-3.75,3.75-3.75h13C155.374,161.416,157.052,163.096,157.052,165.166L157.052,165.166z"/>
<path fill="#ECF0F1" d="M157.052,178.416c0,2.072-1.679,3.75-3.75,3.75h-13c-2.071,0-3.75-1.678-3.75-3.75l0,0
	c0-2.07,1.679-3.75,3.75-3.75h13C155.374,174.666,157.052,176.346,157.052,178.416L157.052,178.416z"/>
<path fill="#ECF0F1" d="M157.052,191.916c0,2.072-1.679,3.75-3.75,3.75h-13c-2.071,0-3.75-1.678-3.75-3.75l0,0
	c0-2.07,1.679-3.75,3.75-3.75h13C155.374,188.166,157.052,189.846,157.052,191.916L157.052,191.916z"/>
<path fill="#ECF0F1" d="M157.052,205.25c0,2.072-1.679,3.75-3.75,3.75h-13c-2.071,0-3.75-1.678-3.75-3.75l0,0
	c0-2.07,1.679-3.75,3.75-3.75h13C155.374,201.5,157.052,203.18,157.052,205.25L157.052,205.25z"/>
<path fill="#ECF0F1" d="M209.052,185.166c0,2.072-1.679,3.75-3.75,3.75h-13c-2.071,0-3.75-1.678-3.75-3.75l0,0
	c0-2.07,1.679-3.75,3.75-3.75h13C207.374,181.416,209.052,183.096,209.052,185.166L209.052,185.166z"/>
<path fill="#ECF0F1" d="M209.052,168.916c0,2.072-1.679,3.75-3.75,3.75h-13c-2.071,0-3.75-1.678-3.75-3.75l0,0
	c0-2.07,1.679-3.75,3.75-3.75h13C207.374,165.166,209.052,166.846,209.052,168.916L209.052,168.916z"/>
<path fill="#ECF0F1" d="M209.052,201.5c0,2.072-1.679,3.75-3.75,3.75h-13c-2.071,0-3.75-1.678-3.75-3.75l0,0
	c0-2.07,1.679-3.75,3.75-3.75h13C207.374,197.75,209.052,199.43,209.052,201.5L209.052,201.5z"/>
<ellipse fill="#ECF0F1" cx="109.515" cy="90.373" rx="17.273" ry="10.958"/>
<ellipse fill="#ECF0F1" cx="118.615" cy="71.057" rx="17.087" ry="17.273"/>
<ellipse fill="#ECF0F1" cx="86.577" cy="80.343" rx="22.938" ry="13.558"/>
<ellipse fill="#ECF0F1" cx="79.612" cy="56.755" rx="19.687" ry="18.573"/>
<ellipse fill="#ECF0F1" cx="107.845" cy="55.914" rx="26.376" ry="22.188"/>
<ellipse fill="#ECF0F1" cx="101.11" cy="32.425" rx="14.533" ry="13.187"/>
<ellipse fill="#ECF0F1" cx="84.255" cy="35.583" rx="12.815" ry="10.029"/>
<ellipse fill="#ECF0F1" cx="72.554" cy="32.305" rx="8.915" ry="13.067"/>
<ellipse fill="#ECF0F1" cx="85.854" cy="21.723" rx="8.842" ry="8.056"/>
<ellipse fill="#ECF0F1" cx="89.27" cy="92.787" rx="7.801" ry="6.686"/>
<ellipse fill="#ECF0F1" cx="128.459" cy="95.852" rx="9.844" ry="5.479"/>
<ellipse fill="#ECF0F1" cx="115.83" cy="99.891" rx="7.985" ry="4.04"/>
<ellipse fill="#ECF0F1" cx="128.273" cy="89.063" rx="4.458" ry="4.838"/>
<ellipse fill="#ECF0F1" cx="129.759" cy="101.888" rx="5.943" ry="3.529"/>
<ellipse fill="#ECF0F1" cx="123.25" cy="101.145" rx="3.537" ry="2.786"/>
<polygon fill="#ECF0F1" points="221.302,112.017 252.755,81.751 255.942,100.148 280.052,86.499 254.235,117.892 249.193,100.148 
	"/>
<path fill="#ECF0F1" d="M-13.75,34.75"/>
<path fill="none" stroke="#ECF0F1" stroke-width="3" stroke-miterlimit="10" d="M85.422,176.441
	c10.872,16.527,34.73,6.492,18.513-9.824c-15.415-15.51-23.7-2.131-10.066,8.223c11.501,8.734,22.902-3.355,14.78-12.121
	c-8.43-9.098-19.377-4.119-8.168,5.078c12.076,9.908,16.83-5.592,9.56-10.801"/>
<path fill="none" stroke="#ECF0F1" stroke-width="3" stroke-miterlimit="10" d="M112.052,150.167c0,0,3.25-11.5,16.5-15.5"/>
</svg>
